<?xml version="1.0" encoding="UTF-8" standalone="no"?>
<!DOCTYPE svg PUBLIC "-//W3C//DTD SVG 1.1//EN"
 "http://www.w3.org/Graphics/SVG/1.1/DTD/svg11.dtd">
<!-- Generated by graphviz version 2.47.0 (20210316.0004)
 -->
<!-- Title: dependencies Pages: 1 -->
<svg width="2894pt" height="284pt"
 viewBox="0.00 0.00 2894.00 284.00" xmlns="http://www.w3.org/2000/svg" xmlns:xlink="http://www.w3.org/1999/xlink">
<g id="graph0" class="graph" transform="scale(1 1) rotate(0) translate(4 280)">
<title>dependencies</title>
<polygon fill="white" stroke="transparent" points="-4,4 -4,-280 2890,-280 2890,4 -4,4"/>
<text text-anchor="start" x="1422.01" y="-42.4" font-family="sans-serif" font-weight="bold" font-size="14.00">Legend</text>
<polygon fill="#ffffb3" stroke="transparent" points="1209,-10 1209,-30 1229,-30 1229,-10 1209,-10"/>
<text text-anchor="start" x="1232.63" y="-15.4" font-family="sans-serif" font-size="14.00"> &#160;Declarations</text>
<polygon fill="#8dd3c7" stroke="transparent" points="1322,-10 1322,-30 1342,-30 1342,-10 1322,-10"/>
<text text-anchor="start" x="1345.73" y="-15.4" font-family="sans-serif" font-size="14.00"> &#160;Module</text>
<polygon fill="#80b1d3" stroke="transparent" points="1408,-10 1408,-30 1428,-30 1428,-10 1408,-10"/>
<text text-anchor="start" x="1431.78" y="-15.4" font-family="sans-serif" font-size="14.00"> &#160;Bootstrap</text>
<polygon fill="#fdb462" stroke="transparent" points="1505,-10 1505,-30 1525,-30 1525,-10 1505,-10"/>
<text text-anchor="start" x="1528.67" y="-15.4" font-family="sans-serif" font-size="14.00"> &#160;Providers</text>
<polygon fill="#fb8072" stroke="transparent" points="1601,-10 1601,-30 1621,-30 1621,-10 1601,-10"/>
<text text-anchor="start" x="1624.73" y="-15.4" font-family="sans-serif" font-size="14.00"> &#160;Exports</text>
<g id="clust1" class="cluster">
<title>cluster_AppModule</title>
<polygon fill="none" stroke="black" stroke-dasharray="1,5" points="8,-70 8,-268 2878,-268 2878,-70 8,-70"/>
</g>
<g id="clust21" class="cluster">
<title>cluster_AppModule_imports</title>
<polygon fill="none" stroke="black" points="2726,-78 2726,-130 2870,-130 2870,-78 2726,-78"/>
</g>
<g id="clust23" class="cluster">
<title>cluster_AppModule_bootstrap</title>
<polygon fill="none" stroke="black" points="1435,-208 1435,-260 1559,-260 1559,-208 1435,-208"/>
</g>
<g id="clust2" class="cluster">
<title>cluster_AppModule_declarations</title>
<polygon fill="none" stroke="black" points="16,-78 16,-130 2718,-130 2718,-78 16,-78"/>
</g>
<!-- AppComponent -->
<g id="node1" class="node">
<title>AppComponent</title>
<polygon fill="#ffffb3" stroke="black" points="2709.94,-122 2604.06,-122 2604.06,-86 2709.94,-86 2709.94,-122"/>
<text text-anchor="middle" x="2657" y="-99.8" font-family="Times,serif" font-size="14.00">AppComponent</text>
</g>
<!-- AppModule -->
<g id="node19" class="node">
<title>AppModule</title>
<polygon fill="#8dd3c7" stroke="black" points="1538.66,-187 1535.66,-191 1514.66,-191 1511.66,-187 1455.34,-187 1455.34,-151 1538.66,-151 1538.66,-187"/>
<text text-anchor="middle" x="1497" y="-164.8" font-family="Times,serif" font-size="14.00">AppModule</text>
</g>
<!-- AppComponent&#45;&gt;AppModule -->
<g id="edge1" class="edge">
<title>AppComponent&#45;&gt;AppModule</title>
<path fill="none" stroke="black" d="M2657,-122.01C2657,-144.49 2657,-180 2657,-180 2657,-180 1548.97,-180 1548.97,-180"/>
<polygon fill="black" stroke="black" points="1548.97,-176.5 1538.97,-180 1548.97,-183.5 1548.97,-176.5"/>
</g>
<!-- BuscarComponent -->
<g id="node2" class="node">
<title>BuscarComponent</title>
<polygon fill="#ffffb3" stroke="black" points="2586.2,-122 2465.8,-122 2465.8,-86 2586.2,-86 2586.2,-122"/>
<text text-anchor="middle" x="2526" y="-99.8" font-family="Times,serif" font-size="14.00">BuscarComponent</text>
</g>
<!-- BuscarComponent&#45;&gt;AppModule -->
<g id="edge2" class="edge">
<title>BuscarComponent&#45;&gt;AppModule</title>
<path fill="none" stroke="black" d="M2526,-122.04C2526,-143.66 2526,-177 2526,-177 2526,-177 1548.93,-177 1548.93,-177"/>
<polygon fill="black" stroke="black" points="1548.93,-173.5 1538.93,-177 1548.93,-180.5 1548.93,-173.5"/>
</g>
<!-- CadastrarComponent -->
<g id="node3" class="node">
<title>CadastrarComponent</title>
<polygon fill="#ffffb3" stroke="black" points="2447.47,-122 2312.53,-122 2312.53,-86 2447.47,-86 2447.47,-122"/>
<text text-anchor="middle" x="2380" y="-99.8" font-family="Times,serif" font-size="14.00">CadastrarComponent</text>
</g>
<!-- CadastrarComponent&#45;&gt;AppModule -->
<g id="edge3" class="edge">
<title>CadastrarComponent&#45;&gt;AppModule</title>
<path fill="none" stroke="black" d="M2380,-122.13C2380,-142.57 2380,-173 2380,-173 2380,-173 1548.7,-173 1548.7,-173"/>
<polygon fill="black" stroke="black" points="1548.7,-169.5 1538.7,-173 1548.7,-176.5 1548.7,-169.5"/>
</g>
<!-- CategoriaComponent -->
<g id="node4" class="node">
<title>CategoriaComponent</title>
<polygon fill="#ffffb3" stroke="black" points="2294.75,-122 2159.25,-122 2159.25,-86 2294.75,-86 2294.75,-122"/>
<text text-anchor="middle" x="2227" y="-99.8" font-family="Times,serif" font-size="14.00">CategoriaComponent</text>
</g>
<!-- CategoriaComponent&#45;&gt;AppModule -->
<g id="edge4" class="edge">
<title>CategoriaComponent&#45;&gt;AppModule</title>
<path fill="none" stroke="black" d="M2227,-122.11C2227,-141.34 2227,-169 2227,-169 2227,-169 1548.87,-169 1548.87,-169"/>
<polygon fill="black" stroke="black" points="1548.87,-165.5 1538.87,-169 1548.87,-172.5 1548.87,-165.5"/>
</g>
<!-- DesignerComponent -->
<g id="node5" class="node">
<title>DesignerComponent</title>
<polygon fill="#ffffb3" stroke="black" points="2140.86,-122 2009.14,-122 2009.14,-86 2140.86,-86 2140.86,-122"/>
<text text-anchor="middle" x="2075" y="-99.8" font-family="Times,serif" font-size="14.00">DesignerComponent</text>
</g>
<!-- DesignerComponent&#45;&gt;AppModule -->
<g id="edge5" class="edge">
<title>DesignerComponent&#45;&gt;AppModule</title>
<path fill="none" stroke="black" d="M2075,-122.27C2075,-140.56 2075,-166 2075,-166 2075,-166 1549.03,-166 1549.03,-166"/>
<polygon fill="black" stroke="black" points="1549.03,-162.5 1539.03,-166 1549.03,-169.5 1549.03,-162.5"/>
</g>
<!-- EntrarComponent -->
<g id="node6" class="node">
<title>EntrarComponent</title>
<polygon fill="#ffffb3" stroke="black" points="1991.31,-122 1874.69,-122 1874.69,-86 1991.31,-86 1991.31,-122"/>
<text text-anchor="middle" x="1933" y="-99.8" font-family="Times,serif" font-size="14.00">EntrarComponent</text>
</g>
<!-- EntrarComponent&#45;&gt;AppModule -->
<g id="edge6" class="edge">
<title>EntrarComponent&#45;&gt;AppModule</title>
<path fill="none" stroke="black" d="M1933,-122.03C1933,-139.06 1933,-162 1933,-162 1933,-162 1548.81,-162 1548.81,-162"/>
<polygon fill="black" stroke="black" points="1548.81,-158.5 1538.81,-162 1548.81,-165.5 1548.81,-158.5"/>
</g>
<!-- HomeComponent -->
<g id="node7" class="node">
<title>HomeComponent</title>
<polygon fill="#ffffb3" stroke="black" points="1856.55,-122 1741.45,-122 1741.45,-86 1856.55,-86 1856.55,-122"/>
<text text-anchor="middle" x="1799" y="-99.8" font-family="Times,serif" font-size="14.00">HomeComponent</text>
</g>
<!-- HomeComponent&#45;&gt;AppModule -->
<g id="edge7" class="edge">
<title>HomeComponent&#45;&gt;AppModule</title>
<path fill="none" stroke="black" d="M1799,-122.01C1799,-138.05 1799,-159 1799,-159 1799,-159 1548.67,-159 1548.67,-159"/>
<polygon fill="black" stroke="black" points="1548.67,-155.5 1538.67,-159 1548.67,-162.5 1548.67,-155.5"/>
</g>
<!-- MenuComponent -->
<g id="node8" class="node">
<title>MenuComponent</title>
<polygon fill="#ffffb3" stroke="black" points="1722.99,-122 1609.01,-122 1609.01,-86 1722.99,-86 1722.99,-122"/>
<text text-anchor="middle" x="1666" y="-99.8" font-family="Times,serif" font-size="14.00">MenuComponent</text>
</g>
<!-- MenuComponent&#45;&gt;AppModule -->
<g id="edge8" class="edge">
<title>MenuComponent&#45;&gt;AppModule</title>
<path fill="none" stroke="black" d="M1666,-122.12C1666,-136.78 1666,-155 1666,-155 1666,-155 1548.78,-155 1548.78,-155"/>
<polygon fill="black" stroke="black" points="1548.78,-151.5 1538.78,-155 1548.78,-158.5 1548.78,-151.5"/>
</g>
<!-- MetodoPagamentoComponent -->
<g id="node9" class="node">
<title>MetodoPagamentoComponent</title>
<polygon fill="#ffffb3" stroke="black" points="1590.59,-122 1403.41,-122 1403.41,-86 1590.59,-86 1590.59,-122"/>
<text text-anchor="middle" x="1497" y="-99.8" font-family="Times,serif" font-size="14.00">MetodoPagamentoComponent</text>
</g>
<!-- MetodoPagamentoComponent&#45;&gt;AppModule -->
<g id="edge9" class="edge">
<title>MetodoPagamentoComponent&#45;&gt;AppModule</title>
<path fill="none" stroke="black" d="M1497,-122.11C1497,-122.11 1497,-140.99 1497,-140.99"/>
<polygon fill="black" stroke="black" points="1493.5,-140.99 1497,-150.99 1500.5,-140.99 1493.5,-140.99"/>
</g>
<!-- PedidoComponent -->
<g id="node10" class="node">
<title>PedidoComponent</title>
<polygon fill="#ffffb3" stroke="black" points="1385.22,-122 1264.78,-122 1264.78,-86 1385.22,-86 1385.22,-122"/>
<text text-anchor="middle" x="1325" y="-99.8" font-family="Times,serif" font-size="14.00">PedidoComponent</text>
</g>
<!-- PedidoComponent&#45;&gt;AppModule -->
<g id="edge10" class="edge">
<title>PedidoComponent&#45;&gt;AppModule</title>
<path fill="none" stroke="black" d="M1325,-122.12C1325,-136.78 1325,-155 1325,-155 1325,-155 1444.92,-155 1444.92,-155"/>
<polygon fill="black" stroke="black" points="1444.92,-158.5 1454.92,-155 1444.92,-151.5 1444.92,-158.5"/>
</g>
<!-- ProdutoComponent -->
<g id="node11" class="node">
<title>ProdutoComponent</title>
<polygon fill="#ffffb3" stroke="black" points="1246.67,-122 1121.33,-122 1121.33,-86 1246.67,-86 1246.67,-122"/>
<text text-anchor="middle" x="1184" y="-99.8" font-family="Times,serif" font-size="14.00">ProdutoComponent</text>
</g>
<!-- ProdutoComponent&#45;&gt;AppModule -->
<g id="edge11" class="edge">
<title>ProdutoComponent&#45;&gt;AppModule</title>
<path fill="none" stroke="black" d="M1184,-122.01C1184,-138.05 1184,-159 1184,-159 1184,-159 1445.11,-159 1445.11,-159"/>
<polygon fill="black" stroke="black" points="1445.11,-162.5 1455.11,-159 1445.11,-155.5 1445.11,-162.5"/>
</g>
<!-- ProdutoDeleteComponent -->
<g id="node12" class="node">
<title>ProdutoDeleteComponent</title>
<polygon fill="#ffffb3" stroke="black" points="1103.2,-122 940.8,-122 940.8,-86 1103.2,-86 1103.2,-122"/>
<text text-anchor="middle" x="1022" y="-99.8" font-family="Times,serif" font-size="14.00">ProdutoDeleteComponent</text>
</g>
<!-- ProdutoDeleteComponent&#45;&gt;AppModule -->
<g id="edge12" class="edge">
<title>ProdutoDeleteComponent&#45;&gt;AppModule</title>
<path fill="none" stroke="black" d="M1022,-122.03C1022,-139.06 1022,-162 1022,-162 1022,-162 1445.26,-162 1445.26,-162"/>
<polygon fill="black" stroke="black" points="1445.26,-165.5 1455.26,-162 1445.26,-158.5 1445.26,-165.5"/>
</g>
<!-- ProdutoEditComponent -->
<g id="node13" class="node">
<title>ProdutoEditComponent</title>
<polygon fill="#ffffb3" stroke="black" points="922.5,-122 773.5,-122 773.5,-86 922.5,-86 922.5,-122"/>
<text text-anchor="middle" x="848" y="-99.8" font-family="Times,serif" font-size="14.00">ProdutoEditComponent</text>
</g>
<!-- ProdutoEditComponent&#45;&gt;AppModule -->
<g id="edge13" class="edge">
<title>ProdutoEditComponent&#45;&gt;AppModule</title>
<path fill="none" stroke="black" d="M848,-122.27C848,-140.56 848,-166 848,-166 848,-166 1444.92,-166 1444.92,-166"/>
<polygon fill="black" stroke="black" points="1444.92,-169.5 1454.92,-166 1444.92,-162.5 1444.92,-169.5"/>
</g>
<!-- RodapeComponent -->
<g id="node14" class="node">
<title>RodapeComponent</title>
<polygon fill="#ffffb3" stroke="black" points="755.1,-122 630.9,-122 630.9,-86 755.1,-86 755.1,-122"/>
<text text-anchor="middle" x="693" y="-99.8" font-family="Times,serif" font-size="14.00">RodapeComponent</text>
</g>
<!-- RodapeComponent&#45;&gt;AppModule -->
<g id="edge14" class="edge">
<title>RodapeComponent&#45;&gt;AppModule</title>
<path fill="none" stroke="black" d="M693,-122.11C693,-141.34 693,-169 693,-169 693,-169 1445.19,-169 1445.19,-169"/>
<polygon fill="black" stroke="black" points="1445.19,-172.5 1455.19,-169 1445.19,-165.5 1445.19,-172.5"/>
</g>
<!-- SobreNosComponent -->
<g id="node15" class="node">
<title>SobreNosComponent</title>
<polygon fill="#ffffb3" stroke="black" points="613.04,-122 476.96,-122 476.96,-86 613.04,-86 613.04,-122"/>
<text text-anchor="middle" x="545" y="-99.8" font-family="Times,serif" font-size="14.00">SobreNosComponent</text>
</g>
<!-- SobreNosComponent&#45;&gt;AppModule -->
<g id="edge15" class="edge">
<title>SobreNosComponent&#45;&gt;AppModule</title>
<path fill="none" stroke="black" d="M545,-122.13C545,-142.57 545,-173 545,-173 545,-173 1445.17,-173 1445.17,-173"/>
<polygon fill="black" stroke="black" points="1445.17,-176.5 1455.17,-173 1445.17,-169.5 1445.17,-176.5"/>
</g>
<!-- UserEditComponent -->
<g id="node16" class="node">
<title>UserEditComponent</title>
<polygon fill="#ffffb3" stroke="black" points="458.59,-122 327.41,-122 327.41,-86 458.59,-86 458.59,-122"/>
<text text-anchor="middle" x="393" y="-99.8" font-family="Times,serif" font-size="14.00">UserEditComponent</text>
</g>
<!-- UserEditComponent&#45;&gt;AppModule -->
<g id="edge16" class="edge">
<title>UserEditComponent&#45;&gt;AppModule</title>
<path fill="none" stroke="black" d="M393,-122.04C393,-143.66 393,-177 393,-177 393,-177 1445.07,-177 1445.07,-177"/>
<polygon fill="black" stroke="black" points="1445.07,-180.5 1455.07,-177 1445.07,-173.5 1445.07,-180.5"/>
</g>
<!-- VerProdutoComponent -->
<g id="node17" class="node">
<title>VerProdutoComponent</title>
<polygon fill="#ffffb3" stroke="black" points="309.15,-122 162.85,-122 162.85,-86 309.15,-86 309.15,-122"/>
<text text-anchor="middle" x="236" y="-99.8" font-family="Times,serif" font-size="14.00">VerProdutoComponent</text>
</g>
<!-- VerProdutoComponent&#45;&gt;AppModule -->
<g id="edge17" class="edge">
<title>VerProdutoComponent&#45;&gt;AppModule</title>
<path fill="none" stroke="black" d="M236,-122.01C236,-144.49 236,-180 236,-180 236,-180 1445.04,-180 1445.04,-180"/>
<polygon fill="black" stroke="black" points="1445.04,-183.5 1455.04,-180 1445.04,-176.5 1445.04,-183.5"/>
</g>
<!-- VitrineComponent -->
<g id="node18" class="node">
<title>VitrineComponent</title>
<polygon fill="#ffffb3" stroke="black" points="144.49,-122 23.51,-122 23.51,-86 144.49,-86 144.49,-122"/>
<text text-anchor="middle" x="84" y="-99.8" font-family="Times,serif" font-size="14.00">VitrineComponent</text>
</g>
<!-- VitrineComponent&#45;&gt;AppModule -->
<g id="edge18" class="edge">
<title>VitrineComponent&#45;&gt;AppModule</title>
<path fill="none" stroke="black" d="M84,-122.15C84,-145.76 84,-184 84,-184 84,-184 1445.1,-184 1445.1,-184"/>
<polygon fill="black" stroke="black" points="1445.1,-187.5 1455.1,-184 1445.1,-180.5 1445.1,-187.5"/>
</g>
<!-- AppComponent  -->
<g id="node21" class="node">
<title>AppComponent </title>
<polygon fill="#80b1d3" stroke="black" points="1551.44,-252 1442.56,-252 1442.56,-216 1551.44,-216 1551.44,-252"/>
<text text-anchor="middle" x="1497" y="-229.8" font-family="Times,serif" font-size="14.00">AppComponent </text>
</g>
<!-- AppModule&#45;&gt;AppComponent  -->
<g id="edge20" class="edge">
<title>AppModule&#45;&gt;AppComponent </title>
<path fill="none" stroke="black" stroke-dasharray="1,5" d="M1497,-187.11C1497,-187.11 1497,-205.99 1497,-205.99"/>
<polygon fill="black" stroke="black" points="1493.5,-205.99 1497,-215.99 1500.5,-205.99 1493.5,-205.99"/>
</g>
<!-- AppRoutingModule -->
<g id="node20" class="node">
<title>AppRoutingModule</title>
<polygon fill="#8dd3c7" stroke="black" points="2862.27,-122 2859.27,-126 2838.27,-126 2835.27,-122 2733.73,-122 2733.73,-86 2862.27,-86 2862.27,-122"/>
<text text-anchor="middle" x="2798" y="-99.8" font-family="Times,serif" font-size="14.00">AppRoutingModule</text>
</g>
<!-- AppRoutingModule&#45;&gt;AppModule -->
<g id="edge19" class="edge">
<title>AppRoutingModule&#45;&gt;AppModule</title>
<path fill="none" stroke="black" d="M2798,-122.15C2798,-145.76 2798,-184 2798,-184 2798,-184 1548.81,-184 1548.81,-184"/>
<polygon fill="black" stroke="black" points="1548.81,-180.5 1538.81,-184 1548.81,-187.5 1548.81,-180.5"/>
</g>
</g>
</svg>
